<?xml version="1.0" encoding="iso-8859-1"?>
<!-- Uploaded to: SVG Repo, www.svgrepo.com, Generator: SVG Repo Mixer Tools -->
<svg fill="#000000" height="800px" width="800px" version="1.1" id="Layer_1" xmlns="http://www.w3.org/2000/svg" xmlns:xlink="http://www.w3.org/1999/xlink" 
	 viewBox="0 0 512 512" xml:space="preserve">
<g>
	<g>
		<g>
			<path d="M154.796,172.658v166.695c0,9.864,7.997,17.86,17.86,17.86h166.695c9.864,0,17.86-7.997,17.86-17.86V172.658
				c0-9.864-7.997-17.86-17.86-17.86H172.656C162.792,154.797,154.796,162.794,154.796,172.658z M190.516,190.518h130.975v130.975
				H190.516V190.518z"/>
			<path d="M494.14,0.009H310.047c-15.849,0-23.873,19.245-12.628,30.489l184.092,184.091c11.16,11.16,30.489,3.373,30.489-12.628
				V17.869C512,8.006,504.003,0.009,494.14,0.009z M476.278,35.729v123.112L353.164,35.729H476.278z"/>
			<path d="M30.497,214.583L214.588,30.49c11.208-11.208,3.274-30.49-12.628-30.49H17.869c-9.864,0-17.86,7.997-17.86,17.86v184.092
				C0.008,217.889,19.322,225.757,30.497,214.583z M35.729,35.721h123.113L35.729,158.835V35.721z"/>
			<path d="M30.489,297.411C19.278,286.203,0,294.142,0,310.041v184.091c0,9.864,7.997,17.86,17.86,17.86h184.092
				c15.849,0,23.873-19.245,12.628-30.489L30.489,297.411z M35.72,476.272V353.159l123.114,123.113H35.72z"/>
			<path d="M481.503,297.418L297.412,481.511c-11.207,11.207-3.273,30.489,12.628,30.489h184.091c9.864,0,17.86-7.997,17.86-17.86
				V310.048C511.992,294.195,492.745,286.178,481.503,297.418z M476.271,476.28H353.158l123.113-123.114V476.28z"/>
		</g>
	</g>
</g>
</svg>